<?xml version="1.0" standalone="no"?>
<!DOCTYPE svg PUBLIC "-//W3C//DTD SVG 20010904//EN"
 "http://www.w3.org/TR/2001/REC-SVG-20010904/DTD/svg10.dtd">
<svg version="1.0" xmlns="http://www.w3.org/2000/svg"
 width="16.000000pt" height="16.000000pt" viewBox="0 0 16.000000 16.000000"
 preserveAspectRatio="xMidYMid meet">
<metadata>
Created by potrace 1.11, written by Peter Selinger 2001-2013
</metadata>
<g transform="translate(0.000000,16.000000) scale(0.009697,-0.009697)"
fill="#000000" stroke="none">
<path d="M840 1148 c-14 -6 -75 -12 -137 -14 -118 -2 -193 -19 -275 -60 -143
-72 -197 -218 -132 -352 56 -115 151 -178 315 -212 129 -27 206 -26 282 4 34
13 92 26 130 29 92 6 166 44 218 109 21 27 39 56 39 63 0 7 11 20 25 29 37 24
65 75 65 117 0 81 -90 196 -195 248 -85 42 -276 64 -335 39z m266 -48 c32 -11
76 -32 97 -46 32 -21 36 -28 31 -52 -14 -56 -64 -118 -64 -78 0 16 -37 46 -57
46 -7 0 -28 -14 -48 -31 -20 -18 -37 -30 -39 -28 -2 2 -9 14 -15 27 -14 26
-47 29 -73 5 -25 -22 -23 -55 7 -83 23 -21 23 -25 10 -51 -17 -31 -51 -47 -68
-30 -15 15 7 122 37 181 22 42 26 45 66 46 34 0 48 6 66 28 30 34 30 42 -1 62
-20 13 -31 14 -57 5 -17 -6 -40 -19 -50 -28 -17 -15 -22 -15 -41 -3 -12 7 -34
20 -49 28 -16 7 -28 15 -28 18 0 2 49 4 108 4 83 0 123 -5 168 -20z m-394 -16
c-26 -18 -89 -108 -125 -180 -27 -52 -97 -124 -121 -124 -29 0 -26 21 13 87
52 90 68 144 52 179 -6 15 -10 28 -8 31 9 8 95 21 152 22 57 1 58 0 37 -15z
m157 -28 l39 -25 -29 -55 c-16 -30 -33 -74 -37 -98 l-8 -43 -17 31 c-15 29
-15 33 -1 45 16 13 48 69 39 69 -2 0 -19 -9 -37 -20 -45 -27 -68 -26 -68 4 0
33 -29 42 -54 17 -18 -18 -18 -23 -6 -47 13 -24 12 -30 -15 -80 -51 -92 -64
-51 -23 75 15 47 33 77 69 114 42 44 52 49 78 44 17 -4 48 -18 70 -31z m171
16 c0 -15 -24 -32 -47 -32 -32 0 -29 16 5 28 35 13 42 14 42 4z m-556 -38 c8
-20 -29 -103 -78 -173 -20 -29 -36 -64 -36 -77 0 -27 34 -54 70 -54 32 0 85
32 102 62 12 23 13 23 18 -11 6 -41 32 -61 58 -45 9 6 31 29 48 51 26 35 32
38 41 24 10 -14 14 -14 41 7 17 12 34 22 37 22 12 0 4 -97 -11 -118 -12 -18
-25 -22 -63 -22 -34 0 -56 -6 -75 -21 -30 -24 -32 -36 -9 -61 20 -23 71 -23
117 -2 34 17 34 17 81 -20 26 -20 55 -36 63 -36 12 0 13 -3 4 -12 -6 -6 -55
-13 -114 -16 -209 -8 -361 58 -433 190 -40 73 -41 142 0 221 37 73 46 79 39
25 -6 -48 6 -74 30 -65 12 5 16 20 16 57 0 56 13 90 34 90 8 0 17 -7 20 -16z
m808 -51 c33 -38 50 -86 45 -125 -6 -41 -31 -88 -48 -88 -22 0 -20 32 5 64 35
46 34 85 -4 121 -16 16 -30 32 -30 37 0 14 16 9 32 -9z m-169 -65 c8 -23 -22
-103 -47 -127 -22 -21 -26 -22 -32 -7 -10 27 5 84 32 116 28 33 39 37 47 18z
m-138 -16 c0 -18 -20 -15 -23 4 -3 10 1 15 10 12 7 -3 13 -10 13 -16z m285 11
c0 -5 -12 -26 -25 -48 -30 -48 -32 -89 -6 -111 18 -16 18 -17 -6 -60 -30 -53
-79 -89 -151 -110 -61 -18 -78 -13 -35 10 34 17 96 82 116 123 8 15 22 53 32
83 19 61 52 120 66 120 5 0 9 -3 9 -7z m-520 -17 c0 -8 -7 -16 -15 -20 -13 -4
-14 -2 -5 14 13 23 20 26 20 6z m405 -93 c-39 -95 -72 -141 -130 -185 -74 -56
-132 -50 -199 21 l-29 30 24 48 c13 26 25 50 26 52 1 2 14 -6 29 -18 37 -29
51 -27 90 15 21 22 34 30 34 20 0 -22 28 -46 54 -46 27 0 66 40 96 98 33 67
37 41 5 -35z m-420 -143 c7 -11 -35 -30 -66 -30 -28 0 -19 23 12 31 36 10 47
10 54 -1z"/>
</g>
</svg>
