<?xml version="1.0" encoding="utf-8"?>
<!-- Generator: Adobe Illustrator 19.0.0, SVG Export Plug-In . SVG Version: 6.00 Build 0)  -->
<svg version="1.1" id="Layer_1" xmlns="http://www.w3.org/2000/svg" xmlns:xlink="http://www.w3.org/1999/xlink" x="0px" y="0px"
	 viewBox="0 0 20.6 20.6" style="enable-background:new 0 0 20.6 20.6;" xml:space="preserve">
<style type="text/css">
	.st0{fill:#FFFFFF;}
</style>
<g>
	<path class="st0" d="M17.1,0H3.5C1.6,0,0,1.6,0,3.5v13.6c0,1.9,1.6,3.5,3.5,3.5h13.6c1.9,0,3.5-1.6,3.5-3.5V3.5
		C20.6,1.6,19.1,0,17.1,0L17.1,0z M2.5,0.9C1.7,1.5,1.2,2.4,1.2,3.5v0.2H0.6V3.5C0.6,2.3,1.4,1.3,2.5,0.9L2.5,0.9z M0.6,16.8v-3.9
		h0.6v3.9H0.6z M0.6,12.3V8.5h0.6v3.8H0.6z M0.6,7.9V4.3h0.6v3.6H0.6z M0.7,17.4h0.6c0.1,0.9,0.5,1.8,1.2,2.3
		C1.5,19.4,0.8,18.5,0.7,17.4L0.7,17.4z M1.9,17.4H3c0.1,0.7,0.8,1.2,1.5,1.2C5.3,18.7,6,18,6,17.1c0-0.9-0.7-1.5-1.5-1.5
		c-0.7,0-1.4,0.5-1.5,1.2H1.8v-3.9H3c0.1,0.7,0.8,1.2,1.5,1.2c0.9,0,1.5-0.7,1.5-1.5c0-0.9-0.7-1.5-1.5-1.5c-0.7,0-1.4,0.5-1.5,1.2
		H1.8V8.5H3c0.1,0.7,0.8,1.2,1.5,1.2C5.3,9.8,6,9.1,6,8.2c0-0.9-0.7-1.5-1.5-1.5C3.8,6.7,3.1,7.2,3,7.9H1.8V4.3H3
		C3.1,5,3.8,5.6,4.5,5.6C5.3,5.6,6,4.9,6,4c0-0.9-0.7-1.5-1.5-1.5C3.8,2.5,3.1,3,3,3.7H1.8V3.5c0-1.6,1.3-2.9,2.9-2.9h2.1V20H4.7
		C3.2,20,2,18.9,1.9,17.4L1.9,17.4z M3.7,16.8c0.1-0.3,0.5-0.6,0.8-0.6c0.5,0,0.9,0.4,0.9,0.9C5.4,17.6,5,18,4.5,18
		c-0.4,0-0.7-0.2-0.8-0.6h0.8v-0.6H3.7z M3.7,12.3c0.1-0.3,0.5-0.6,0.8-0.6c0.5,0,0.9,0.4,0.9,0.9c0,0.5-0.4,0.9-0.9,0.9
		c-0.4,0-0.7-0.2-0.8-0.6h0.8v-0.6H3.7z M3.7,7.9c0.1-0.3,0.5-0.6,0.8-0.6c0.5,0,0.9,0.4,0.9,0.9S5,9.1,4.5,9.1
		c-0.4,0-0.7-0.2-0.8-0.6h0.8V7.9L3.7,7.9L3.7,7.9z M3.7,3.7c0.1-0.3,0.5-0.6,0.8-0.6C5,3.1,5.4,3.5,5.4,4c0,0.5-0.4,0.9-0.9,0.9
		c-0.4,0-0.7-0.2-0.8-0.6h0.8V3.7L3.7,3.7L3.7,3.7z M20,17.1c0,1.6-1.3,2.9-2.9,2.9H7.4V0.6h9.7c1.6,0,2.9,1.3,2.9,2.9V17.1z
		 M18.3,12.7H9.3V12h9.1V12.7z M18.3,10.7h-9v-0.6h9V10.7z M18.3,14.6H9.3V14h9.1V14.6z M9.4,6h1.4c0.4,0,0.7,0.1,0.9,0.3
		C11.9,6.4,12,6.7,12,7c0,0.4-0.1,0.6-0.3,0.8c-0.2,0.2-0.5,0.3-0.9,0.3c-0.3,0-0.5,0-0.7,0v1.2H9.4V6z M10.1,7.6h0.6
		c0.2,0,0.3,0,0.4-0.1c0.1-0.1,0.1-0.2,0.1-0.4c0-0.2-0.1-0.3-0.1-0.4c-0.1-0.1-0.2-0.1-0.4-0.1h-0.6V7.6z M12.5,6h1.4
		c0.5,0,0.8,0.1,1,0.4c0.2,0.3,0.4,0.7,0.4,1.2c0,0.6-0.1,1-0.4,1.3c-0.3,0.3-0.6,0.4-1.1,0.4h-1.4V6z M13.2,8.8h0.6
		c0.3,0,0.5-0.1,0.6-0.3c0.1-0.2,0.2-0.5,0.2-0.9c0-0.3-0.1-0.6-0.2-0.8c-0.1-0.2-0.3-0.3-0.6-0.3h-0.6V8.8z M15.8,9.3V6h2.4v0.6
		h-1.7v0.8H18v0.6h-1.5v1.4h-0.3L15.8,9.3z M15.8,9.3"/>
</g>
</svg>
