<?xml version="1.0" encoding="utf-8"?>
<!-- Generator: Adobe Illustrator 19.0.0, SVG Export Plug-In . SVG Version: 6.00 Build 0)  -->
<svg version="1.1" id="Layer_1" xmlns="http://www.w3.org/2000/svg" xmlns:xlink="http://www.w3.org/1999/xlink" x="0px" y="0px"
	 viewBox="-55.3 41.5 73.7 73.7" style="enable-background:new -55.3 41.5 73.7 73.7;" xml:space="preserve">
<style type="text/css">
	.st0{clip-path:url(#SVGID_2_);}
	.st1{fill:#002F67;}
	.st2{fill:#003067;}
	.st3{fill:#003068;}
	.st4{fill:#003168;}
	.st5{fill:#003169;}
	.st6{fill:#00326A;}
	.st7{fill:#00336B;}
	.st8{fill:#01336C;}
	.st9{fill:#03346C;}
	.st10{fill:#04356D;}
	.st11{fill:#06356D;}
	.st12{fill:#07366E;}
	.st13{fill:#09366F;}
	.st14{fill:#0A376F;}
	.st15{fill:#0C3870;}
	.st16{fill:#0D3871;}
	.st17{fill:#0E3971;}
	.st18{fill:#103972;}
	.st19{fill:#113A73;}
	.st20{fill:#123A73;}
	.st21{fill:#133B74;}
	.st22{fill:#143C75;}
	.st23{fill:#153C75;}
	.st24{fill:#163D76;}
	.st25{fill:#173E77;}
	.st26{fill:#183E77;}
	.st27{fill:#193F78;}
	.st28{fill:#1A4079;}
	.st29{fill:#1B4079;}
	.st30{fill:#1C417A;}
	.st31{fill:#1D427B;}
	.st32{fill:#1D427C;}
	.st33{fill:#1E437C;}
	.st34{fill:#1F447D;}
	.st35{fill:#20447E;}
	.st36{fill:#21457F;}
	.st37{fill:#21467F;}
	.st38{fill:#224680;}
	.st39{fill:#234781;}
	.st40{fill:#244882;}
	.st41{fill:#254882;}
	.st42{fill:#254983;}
	.st43{fill:#264A84;}
	.st44{fill:#274B85;}
	.st45{fill:#284B86;}
	.st46{fill:#294C86;}
	.st47{fill:#2A4D87;}
	.st48{fill:#2A4E88;}
	.st49{fill:#2B4E89;}
	.st50{fill:#2C4F8A;}
	.st51{fill:#2D508A;}
	.st52{fill:#2D518B;}
	.st53{fill:#2E518C;}
	.st54{fill:#2F528D;}
	.st55{fill:#30538E;}
	.st56{fill:#30548E;}
	.st57{fill:#31558F;}
	.st58{fill:#325590;}
	.st59{fill:#335691;}
	.st60{fill:#345792;}
	.st61{fill:#345893;}
	.st62{fill:#355994;}
	.st63{fill:#365994;}
	.st64{fill:#375A95;}
	.st65{fill:#375B96;}
	.st66{fill:#385C97;}
	.st67{fill:#395D98;}
	.st68{fill:#3A5E99;}
	.st69{fill:#3A5F9A;}
	.st70{fill:#3B5F9B;}
	.st71{fill:#3C609C;}
	.st72{fill:#3D619D;}
	.st73{fill:#3D629D;}
	.st74{fill:#3E639E;}
	.st75{fill:#3F649F;}
	.st76{fill:#4065A0;}
	.st77{fill:#4066A1;}
	.st78{fill:#4166A2;}
	.st79{fill:#4267A3;}
	.st80{fill:#4368A4;}
	.st81{fill:#4369A5;}
	.st82{fill:#446AA6;}
	.st83{fill:#456BA7;}
	.st84{fill:#466CA8;}
	.st85{fill:#466DA9;}
	.st86{fill:#476EAA;}
	.st87{fill:#486FAB;}
	.st88{fill:#4970AC;}
	.st89{fill:#4A71AD;}
	.st90{fill:#4A72AE;}
	.st91{fill:#4B73AF;}
	.st92{fill:#4C74B0;}
	.st93{fill:#4D75B1;}
	.st94{fill:#4E76B2;}
	.st95{fill:#4E77B3;}
	.st96{fill:#4F77B4;}
	.st97{fill:#5078B5;}
	.st98{fill:#5179B6;}
	.st99{fill:#527BB7;}
	.st100{fill:#527CB8;}
	.st101{fill:#537DB9;}
	.st102{fill:#547EBA;}
	.st103{opacity:0.2;fill:#FFFFFF;enable-background:new    ;}
	.st104{fill:#FFFFFF;}
</style>
<g>
	<g>
		<g>
			<defs>
				<path id="SVGID_1_" d="M-52.7,50.1c0-3.3,2.6-5.9,5.9-5.9H9.8c3.3,0,5.9,2.6,5.9,5.9v56.6c0,3.3-2.6,5.9-5.9,5.9h-56.6
					c-3.3,0-5.9-2.6-5.9-5.9L-52.7,50.1L-52.7,50.1z"/>
			</defs>
			<clipPath id="SVGID_2_">
				<use xlink:href="#SVGID_1_"  style="overflow:visible;"/>
			</clipPath>
			<g class="st0">
				<path class="st1" d="M42.9,95.9c0-33.6-27.3-60.9-60.8-60.9c-33.6,0-60.9,27.3-60.9,60.9s27.3,60.9,60.9,60.9
					C15.7,156.7,42.9,129.4,42.9,95.9"/>
				<path class="st2" d="M42.4,95.9c0-33.3-27.1-60.4-60.4-60.4c-33.2,0-60.3,27.1-60.3,60.4s27.1,60.4,60.4,60.4
					C15.4,156.1,42.4,129.2,42.4,95.9"/>
				<path class="st3" d="M42,95.9C42,62.8,15.1,36-17.9,36C-51,36-77.7,62.8-77.7,95.9c0,33,26.9,59.9,59.9,59.9S42,128.9,42,95.9"
					/>
				<path class="st4" d="M41.5,95.9c0-32.8-26.5-59.3-59.3-59.3s-59.3,26.5-59.3,59.3s26.5,59.3,59.3,59.3
					C14.8,155.2,41.5,128.5,41.5,95.9"/>
				<path class="st5" d="M40.9,95.9c0-32.5-26.3-58.8-58.8-58.8s-58.8,26.3-58.8,58.8s26.3,58.8,58.8,58.8S40.9,128.3,40.9,95.9"/>
				<path class="st6" d="M40.4,95.9c0-32.1-26.1-58.3-58.3-58.3c-32.3-0.1-58.4,26-58.4,58.3c0,32.1,26.1,58.3,58.3,58.3
					C14.3,154.1,40.4,128,40.4,95.9"/>
				<path class="st6" d="M39.9,95.9c0-31.9-25.9-57.7-57.7-57.7C-49.8,38-75.7,63.9-75.7,95.9s25.9,57.7,57.7,57.7
					C14,153.6,39.9,127.7,39.9,95.9"/>
				<path class="st7" d="M39.3,95.9c0-31.6-25.7-57.2-57.2-57.2c-31.6-0.1-57.3,25.6-57.3,57.2s25.7,57.2,57.2,57.2
					C13.8,153.1,39.3,127.5,39.3,95.9"/>
				<path class="st8" d="M38.8,95.9c0-31.3-25.4-56.8-56.8-56.8c-31.3,0-56.8,25.4-56.8,56.8c0,31.3,25.4,56.8,56.8,56.8
					C13.4,152.5,38.8,127.2,38.8,95.9"/>
				<path class="st9" d="M38.3,95.9c0-31-25.2-56.3-56.3-56.3c-31,0-56.2,25.2-56.2,56.3c0,31,25.2,56.3,56.3,56.3
					C13.1,152,38.3,126.8,38.3,95.9"/>
				<path class="st10" d="M37.8,95.9c0-30.8-25-55.7-55.7-55.7c-30.7,0-55.6,25-55.6,55.7s25,55.7,55.7,55.7
					C12.8,151.5,37.8,126.5,37.8,95.9"/>
				<path class="st11" d="M37.3,95.9c0-30.5-24.7-55.2-55.2-55.2c-30.5,0-55.2,24.7-55.2,55.2s24.7,55.2,55.2,55.2
					S37.3,126.3,37.3,95.9"/>
				<path class="st12" d="M36.8,95.9c0-30.1-24.5-54.7-54.7-54.7c-30.2,0-54.7,24.4-54.7,54.7c0,30.1,24.5,54.7,54.7,54.7
					S36.8,126,36.8,95.9"/>
				<path class="st13" d="M36.3,95.9c0-29.9-24.2-54.1-54.1-54.1C-47.8,41.7-72,65.9-72,95.9S-47.8,150-17.9,150
					C12,150,36.3,125.7,36.3,95.9"/>
				<path class="st14" d="M35.7,95.9c0-29.6-24-53.6-53.6-53.6s-53.6,24-53.6,53.6s24,53.6,53.6,53.6S35.7,125.5,35.7,95.9"/>
				<path class="st15" d="M35.2,95.9c0-29.3-23.8-53.1-53.1-53.1c-29.4-0.1-53.2,23.7-53.2,53.1c0,29.3,23.8,53.1,53.1,53.1
					C11.4,148.9,35.2,125.2,35.2,95.9"/>
				<path class="st16" d="M34.7,95.9c0-29.1-23.6-52.6-52.6-52.6C-47,43.2-70.5,66.8-70.5,95.9S-47,148.4-18,148.4
					C11.1,148.4,34.7,124.8,34.7,95.9"/>
				<path class="st17" d="M34.2,95.9c0-28.8-23.4-52.1-52.1-52.1c-28.7,0-52,23.4-52,52.1S-46.6,148-17.9,148
					C10.9,147.9,34.2,124.6,34.2,95.9"/>
				<path class="st18" d="M33.6,95.9c0-28.4-23.1-51.6-51.6-51.6c-28.4,0-51.5,23.1-51.5,51.6c0,28.4,23.1,51.6,51.6,51.6
					C10.6,147.4,33.6,124.3,33.6,95.9"/>
				<path class="st19" d="M33.1,95.9c0-28.1-22.8-51.1-51.1-51.1c-28.1,0-51,22.8-51,51.1c0,28.1,22.8,51.1,51.1,51.1
					C10.3,146.8,33.1,124,33.1,95.9"/>
				<path class="st20" d="M32.7,95.9c0-27.9-22.6-50.5-50.5-50.5c-27.9,0-50.5,22.6-50.5,50.5s22.6,50.5,50.5,50.5
					C9.9,146.4,32.7,123.7,32.7,95.9"/>
				<path class="st21" d="M32.2,95.9c0-27.6-22.4-50-50-50s-50,22.4-50,50s22.4,50,50,50S32.2,123.5,32.2,95.9"/>
				<path class="st22" d="M31.6,95.9c0-27.3-22.2-49.5-49.5-49.5s-49.5,22.2-49.5,49.5s22.2,49.5,49.5,49.5S31.6,123.1,31.6,95.9"/>
				<path class="st23" d="M31.1,95.9c0-27.1-22-49-49-49c-27.1-0.1-49.1,21.9-49.1,49s22,49,49,49C9.1,144.8,31.1,122.8,31.1,95.9"
					/>
				<path class="st24" d="M30.6,95.9c0-26.8-21.7-48.4-48.4-48.4s-48.4,21.7-48.4,48.4s21.7,48.4,48.4,48.4S30.6,122.6,30.6,95.9"/>
				<path class="st25" d="M30,95.9C30,69.4,8.6,48-17.9,48s-47.9,21.5-47.9,47.9s21.5,47.9,47.9,47.9S30,122.3,30,95.9"/>
				<path class="st26" d="M29.5,95.9c0-26.2-21.3-47.5-47.5-47.5s-47.5,21.3-47.5,47.5s21.3,47.5,47.5,47.5
					C8.3,143.2,29.5,122,29.5,95.9"/>
				<path class="st27" d="M29,95.9c0-25.9-21-47-47-47s-47,21-47,47s21,47,47,47C8,142.7,29,121.8,29,95.9"/>
				<path class="st28" d="M28.5,95.9c0-25.6-20.8-46.4-46.4-46.4s-46.4,20.8-46.4,46.4s20.8,46.4,46.4,46.4
					C7.7,142.2,28.5,121.5,28.5,95.9"/>
				<path class="st29" d="M28,95.9C28,70.6,7.5,50-17.9,50c-25.3,0-45.9,20.5-45.9,45.9c0,25.3,20.5,45.9,45.9,45.9
					C7.4,141.8,28,121.1,28,95.9"/>
				<path class="st30" d="M27.5,95.9c0-25.1-20.3-45.4-45.4-45.4s-45.4,20.3-45.4,45.4s20.3,45.4,45.4,45.4
					C7.1,141.2,27.5,120.8,27.5,95.9"/>
				<path class="st31" d="M27,95.9C27,71.1,6.9,51-17.9,51s-44.8,20.1-44.8,44.8s20.1,44.8,44.8,44.8S27,120.6,27,95.9"/>
				<path class="st32" d="M26.4,95.9c0-24.4-19.9-44.3-44.3-44.3s-44.3,19.9-44.3,44.3s19.9,44.3,44.3,44.3S26.4,120.3,26.4,95.9"/>
				<path class="st33" d="M25.9,95.9c0-24.2-19.7-43.8-43.8-43.8c-24.2,0-43.8,19.7-43.8,43.8c-0.1,24.1,19.6,43.8,43.8,43.8
					C6.2,139.6,25.9,120,25.9,95.9"/>
				<path class="st34" d="M25.4,95.9C25.4,72,6,52.6-17.9,52.6C-41.8,52.5-61.2,72-61.2,95.9s19.4,43.3,43.3,43.3
					C6,139.1,25.4,119.8,25.4,95.9"/>
				<path class="st35" d="M24.9,95.9c0-23.6-19.1-42.7-42.7-42.7s-42.8,19.1-42.8,42.7s19.1,42.7,42.8,42.7
					C5.7,138.6,24.9,119.4,24.9,95.9"/>
				<path class="st36" d="M24.3,95.9c0-23.4-18.9-42.3-42.3-42.3s-42.3,18.9-42.3,42.3s18.9,42.3,42.3,42.3
					C5.4,138.1,24.3,119.1,24.3,95.9"/>
				<path class="st37" d="M23.8,95.9c0-23.1-18.7-41.8-41.8-41.8s-41.8,18.7-41.8,41.8c0.1,23.1,18.8,41.7,41.9,41.7
					S23.8,118.9,23.8,95.9"/>
				<path class="st38" d="M23.3,95.9c0-22.7-18.5-41.2-41.2-41.2s-41.2,18.5-41.2,41.2s18.5,41.2,41.2,41.2
					C4.9,137,23.3,118.6,23.3,95.9"/>
				<path class="st39" d="M22.8,95.9c0-22.4-18.2-40.7-40.7-40.7c-22.4,0-40.7,18.2-40.7,40.7c0,22.4,18.2,40.7,40.7,40.7
					C4.6,136.6,22.8,118.3,22.8,95.9"/>
				<path class="st40" d="M22.3,95.9c0-22.2-18-40.2-40.2-40.2s-40.2,18-40.2,40.2s18,40.2,40.2,40.2C4.2,136,22.3,118,22.3,95.9"/>
				<path class="st41" d="M21.8,95.9C21.8,74,4,56.2-17.9,56.2S-57.5,74-57.5,95.9s17.8,39.7,39.7,39.7S21.8,117.8,21.8,95.9"/>
				<path class="st42" d="M21.3,95.9c0-21.6-17.6-39.1-39.1-39.1S-57,74.3-57,95.9S-39.4,135-17.9,135S21.3,117.4,21.3,95.9"/>
				<path class="st43" d="M20.7,95.9c0-21.4-17.3-38.7-38.6-38.7c-21.4,0-38.7,17.3-38.7,38.7s17.3,38.6,38.6,38.6
					C3.4,134.5,20.7,117.1,20.7,95.9"/>
				<path class="st44" d="M20.2,95.9c0-21-17-38.1-38.1-38.1s-38.1,17-38.1,38.1s17,38.1,38.1,38.1S20.2,116.9,20.2,95.9"/>
				<path class="st45" d="M19.7,95.9c0-20.8-16.8-37.6-37.5-37.6c-20.8,0-37.6,16.8-37.6,37.6c0,20.7,16.8,37.6,37.6,37.6
					C2.9,133.4,19.7,116.6,19.7,95.9"/>
				<path class="st46" d="M19.1,95.9c0-20.5-16.6-37.1-37.1-37.1s-37.1,16.6-37.1,37.1S-38.5,133-18,133
					C2.5,132.9,19.1,116.3,19.1,95.9"/>
				<path class="st47" d="M18.6,95.9c0-20.2-16.3-36.6-36.5-36.6s-36.6,16.4-36.6,36.6s16.4,36.6,36.6,36.6
					C2.3,132.3,18.6,116.1,18.6,95.9"/>
				<path class="st48" d="M18.2,95.9C18.2,76,2,59.8-17.9,59.8S-53.9,76-53.9,95.9s16.2,36.1,36.1,36.1S18.2,115.7,18.2,95.9"/>
				<path class="st49" d="M17.7,95.9c0-19.7-16-35.5-35.5-35.5c-19.7,0-35.5,15.9-35.5,35.5c0,19.6,15.9,35.5,35.5,35.5
					C1.7,131.4,17.7,115.4,17.7,95.9"/>
				<path class="st50" d="M17.1,95.9c0-19.4-15.7-35-35-35s-35,15.7-35,35s15.7,35,35,35C1.4,130.9,17.1,115.1,17.1,95.9"/>
				<path class="st51" d="M16.6,95.9c0-19-15.4-34.5-34.5-34.5s-34.5,15.4-34.5,34.5s15.4,34.5,34.5,34.5S16.6,114.9,16.6,95.9"/>
				<path class="st52" d="M16.1,95.9c0-18.7-15.2-33.9-33.9-33.9s-33.9,15.2-33.9,33.9s15.2,33.9,33.9,33.9S16.1,114.6,16.1,95.9"/>
				<path class="st53" d="M15.5,95.9c0-18.5-15-33.4-33.4-33.4c-18.5,0-33.4,15-33.4,33.4c0,18.5,15,33.4,33.4,33.4
					S15.5,114.3,15.5,95.9"/>
				<path class="st54" d="M15,95.9c0-18.2-14.8-33-33-33s-33,14.8-33,33s14.8,33,33,33C0.3,128.8,15,114.1,15,95.9"/>
				<path class="st55" d="M14.5,95.9C14.5,78,0,63.4-18,63.4c-17.9,0-32.5,14.5-32.5,32.5c0,17.9,14.5,32.5,32.5,32.5
					C0,128.2,14.5,113.7,14.5,95.9"/>
				<path class="st56" d="M14,95.9C14,78.2-0.3,63.9-18,63.9s-31.9,14.3-31.9,31.9s14.3,31.9,31.9,31.9C-0.3,127.7,14,113.4,14,95.9
					"/>
				<path class="st57" d="M13.5,95.9c0-17.3-14.1-31.4-31.4-31.4s-31.4,14.1-31.4,31.4s14.1,31.4,31.4,31.4S13.5,113.2,13.5,95.9"/>
				<path class="st58" d="M13,95.9C13,78.8-0.8,65-17.9,65s-30.9,13.9-30.9,30.9s13.9,30.9,30.9,30.9S13,112.9,13,95.9"/>
				<path class="st59" d="M12.5,95.9c0-16.7-13.6-30.4-30.4-30.4s-30.4,13.6-30.4,30.4s13.6,30.4,30.4,30.4S12.5,112.6,12.5,95.9"/>
				<path class="st60" d="M12,95.9C12,79.4-1.4,66-17.9,66c-16.5-0.1-29.9,13.3-29.9,29.8s13.3,29.8,29.8,29.8S12,112.3,12,95.9"/>
				<path class="st61" d="M11.4,95.9c0-16.2-13.1-29.3-29.3-29.3s-29.3,13.1-29.3,29.3s13.1,29.3,29.3,29.3S11.4,112,11.4,95.9"/>
				<path class="st62" d="M10.9,95.9C10.9,80-2,67.1-17.9,67.1S-46.6,80-46.6,95.9s12.9,28.8,28.8,28.8S10.9,111.7,10.9,95.9"/>
				<path class="st63" d="M10.4,95.9c0-15.7-12.7-28.3-28.3-28.3s-28.3,12.7-28.3,28.3s12.7,28.3,28.3,28.3
					C-2.3,124.1,10.4,111.4,10.4,95.9"/>
				<path class="st64" d="M9.8,95.9C9.8,80.5-2.6,68-18,68s-27.8,12.5-27.8,27.8s12.5,27.8,27.8,27.8C-2.5,123.6,9.8,111.2,9.8,95.9
					"/>
				<path class="st65" d="M9.3,95.9c0-15-12.2-27.3-27.3-27.3c-15,0-27.3,12.2-27.3,27.3c0,15,12.2,27.3,27.3,27.3
					C-2.9,123,9.3,110.9,9.3,95.9"/>
				<path class="st66" d="M8.9,95.9c0-14.8-12-26.8-26.8-26.8s-26.8,12-26.8,26.8s12,26.8,26.8,26.8C-3.2,122.6,8.9,110.6,8.9,95.9"
					/>
				<path class="st67" d="M8.4,95.9c0-14.5-11.7-26.2-26.2-26.2s-26.2,11.7-26.2,26.2s11.7,26.2,26.2,26.2
					C-3.4,122.1,8.4,110.4,8.4,95.9"/>
				<path class="st68" d="M7.8,95.9c0-14.2-11.5-25.7-25.7-25.7s-25.7,11.5-25.7,25.7s11.5,25.7,25.7,25.7
					C-3.7,121.6,7.8,110,7.8,95.9"/>
				<path class="st69" d="M7.3,95.9C7.3,82-4,70.7-17.9,70.7C-31.8,70.7-43,82-43,95.9c0,14,11.3,25.2,25.2,25.2
					C-4,121,7.3,109.7,7.3,95.9"/>
				<path class="st70" d="M6.8,95.9c0-13.6-11.1-24.6-24.6-24.6c-13.6,0-24.6,11.1-24.6,24.6c0,13.6,11.1,24.6,24.6,24.6
					C-4.3,120.5,6.8,109.4,6.8,95.9"/>
				<path class="st71" d="M6.2,95.9c0-13.3-10.8-24.1-24.1-24.1c-13.3-0.1-24.2,10.8-24.2,24.1S-31.3,120-18,120
					C-4.5,120,6.2,109.2,6.2,95.9"/>
				<path class="st72" d="M5.7,95.9c0-13-10.6-23.7-23.7-23.7c-13,0-23.7,10.6-23.7,23.7c0,13,10.6,23.7,23.7,23.7
					C-4.9,119.4,5.7,108.9,5.7,95.9"/>
				<path class="st73" d="M5.2,95.9C5.2,83.1-5.2,72.7-18,72.7s-23.2,10.4-23.2,23.2S-30.8,119-18,119
					C-5.2,118.9,5.2,108.6,5.2,95.9"/>
				<path class="st74" d="M4.7,95.9C4.7,83.4-5.5,73.2-18,73.2s-22.6,10.2-22.6,22.6s10.2,22.6,22.6,22.6
					C-5.4,118.4,4.7,108.3,4.7,95.9"/>
				<path class="st75" d="M4.2,95.9c0-12.2-9.9-22.1-22.1-22.1c-12.3,0-22.1,9.8-22.1,22.1C-40,108-30,118-17.9,118
					S4.2,108,4.2,95.9"/>
				<path class="st76" d="M3.7,95.9c0-12-9.6-21.6-21.6-21.6s-21.6,9.6-21.6,21.6s9.6,21.6,21.6,21.6C-6,117.4,3.7,107.7,3.7,95.9"
					/>
				<path class="st77" d="M3.2,95.9c0-11.6-9.4-21-21-21s-21,9.4-21,21s9.4,21,21,21S3.2,107.5,3.2,95.9"/>
				<path class="st78" d="M2.6,95.9c0-11.3-9.2-20.5-20.5-20.5s-20.5,9.2-20.5,20.5s9.2,20.5,20.5,20.5S2.6,107.2,2.6,95.9"/>
				<path class="st79" d="M2.1,95.9c0-11.1-9-20-20-20c-11.1,0-20,9-20,20c0,11.1,9,20,20,20S2.1,106.9,2.1,95.9"/>
				<path class="st80" d="M1.6,95.9c0-10.8-8.8-19.5-19.5-19.5c-10.8,0-19.5,8.8-19.5,19.5c0,10.8,8.8,19.5,19.5,19.5
					S1.6,106.5,1.6,95.9"/>
				<path class="st81" d="M1.1,95.9c0-10.5-8.5-19-19-19c-10.5,0-19,8.5-19,19c0,10.5,8.5,19,19,19C-7.4,114.8,1.1,106.3,1.1,95.9"
					/>
				<path class="st82" d="M0.5,95.9c0-10.2-8.2-18.5-18.5-18.5c-10.2,0-18.5,8.2-18.5,18.5c0,10.2,8.2,18.5,18.5,18.5
					C-7.7,114.3,0.5,106,0.5,95.9"/>
				<path class="st83" d="M0,95.9c0-9.9-8-18-18-18s-18,8-18,18s8,18,18,18C-8,113.7,0,105.7,0,95.9"/>
				<path class="st84" d="M-0.4,95.9c0-9.6-7.8-17.4-17.4-17.4s-17.4,7.8-17.4,17.4s7.8,17.4,17.4,17.4S-0.4,105.5-0.4,95.9"/>
				<path class="st85" d="M-0.9,95.9c0-9.3-7.6-16.9-16.9-16.9s-16.9,7.6-16.9,16.9s7.6,16.9,16.9,16.9S-0.9,105.2-0.9,95.9"/>
				<path class="st86" d="M-1.5,95.9c0-9.1-7.3-16.4-16.4-16.4s-16.4,7.3-16.4,16.4s7.3,16.4,16.4,16.4
					C-8.9,112.3-1.5,104.9-1.5,95.9"/>
				<path class="st87" d="M-2,95.9C-2,87.1-9.1,80-17.9,80s-15.9,7.1-15.9,15.9s7.1,15.9,15.9,15.9S-2,104.6-2,95.9"/>
				<path class="st88" d="M-2.5,95.9c0-8.5-6.9-15.3-15.3-15.3s-15.3,6.9-15.3,15.3s6.9,15.3,15.3,15.3S-2.5,104.3-2.5,95.9"/>
				<path class="st89" d="M-3.1,95.9c0-8.2-6.7-14.8-14.8-14.8c-8.2,0-14.8,6.7-14.8,14.8c0,8.2,6.7,14.8,14.8,14.8
					S-3.1,104-3.1,95.9"/>
				<path class="st90" d="M-3.6,95.9c0-7.9-6.5-14.4-14.3-14.4c-7.9,0-14.4,6.5-14.4,14.4s6.5,14.4,14.4,14.4
					C-10,110.1-3.6,103.7-3.6,95.9"/>
				<path class="st91" d="M-4.1,95.9C-4.1,88.2-10.4,82-18,82s-13.9,6.2-13.9,13.9c0,7.6,6.2,13.9,13.9,13.9
					C-10.3,109.6-4.1,103.5-4.1,95.9"/>
				<path class="st92" d="M-4.6,95.9c0-7.3-5.9-13.3-13.3-13.3c-7.3,0-13.2,5.9-13.2,13.3c0,7.3,5.9,13.3,13.3,13.3
					C-10.6,109.1-4.6,103.2-4.6,95.9"/>
				<path class="st93" d="M-5.1,95.9c0-7.1-5.7-12.8-12.8-12.8s-12.8,5.7-12.8,12.8c0,7.1,5.7,12.8,12.8,12.8
					C-10.9,108.7-5.1,102.8-5.1,95.9"/>
				<path class="st94" d="M-5.6,95.9c0-6.8-5.5-12.3-12.3-12.3s-12.3,5.5-12.3,12.3s5.5,12.3,12.3,12.3S-5.6,102.6-5.6,95.9"/>
				<path class="st95" d="M-6.1,95.9c0-6.5-5.3-11.7-11.7-11.7s-11.7,5.3-11.7,11.7c0,6.5,5.3,11.7,11.7,11.7S-6.1,102.3-6.1,95.9"
					/>
				<path class="st96" d="M-6.7,95.9c0-6.2-5.1-11.2-11.2-11.2c-6.2,0-11.2,5.1-11.2,11.2c0,6.2,5.1,11.2,11.2,11.2
					S-6.7,102-6.7,95.9"/>
				<path class="st97" d="M-7.2,95.9c0-5.9-4.8-10.7-10.7-10.7s-10.7,4.8-10.7,10.7c0,5.9,4.8,10.7,10.7,10.7S-7.2,101.8-7.2,95.9"
					/>
				<path class="st98" d="M-7.7,95.9c0-5.6-4.5-10.2-10.2-10.2S-28,90.3-28,95.9s4.5,10.2,10.2,10.2S-7.7,101.5-7.7,95.9"/>
				<path class="st99" d="M-8.2,95.9c0-5.4-4.3-9.7-9.7-9.7s-9.7,4.3-9.7,9.7c0,5.4,4.3,9.7,9.7,9.7C-12.6,105.5-8.2,101.1-8.2,95.9
					"/>
				<path class="st100" d="M-8.8,95.9c0-5.1-4.1-9.2-9.2-9.2s-9.2,4.1-9.2,9.2s4.1,9.2,9.2,9.2C-12.9,105-8.8,100.8-8.8,95.9"/>
				<path class="st101" d="M-9.3,95.9c0-4.8-3.9-8.7-8.7-8.7s-8.7,3.9-8.7,8.7c0,4.8,3.9,8.7,8.7,8.7
					C-13.1,104.4-9.3,100.6-9.3,95.9"/>
				<path class="st102" d="M-9.7,95.9c0-4.4-3.6-8.1-8.1-8.1c-4.4,0-8.1,3.6-8.1,8.1c0,4.4,3.6,8.1,8.1,8.1
					C-13.4,104-9.7,100.3-9.7,95.9"/>
			</g>
		</g>
	</g>
	<path class="st103" d="M-52.7,73.5c9.5,3.6,21.4,5.7,34.3,5.7c12.8,0,24.6-2.1,34.2-5.6V50.1c0-3.3-2.6-5.9-5.9-5.9h-56.6
		c-3.3,0-5.9,2.6-5.9,5.9L-52.7,73.5L-52.7,73.5z"/>
	<path class="st104" d="M-20.8,68.5h6.5v-2.9v-2.9v-0.4c0-2.7,0.1-7,2.1-9.6c2.1-2.7,5-4.7,9.9-4.7c8,0,11.5,1.2,11.5,1.2l-1.6,9.5
		c0,0-2.6-0.7-5.2-0.7s-4.8,0.8-4.8,3.4v1.1v3.2v3H7.9l-0.7,9.3h-9.5V110h-12.2V77.8h-6.5v-9.3H-20.8z"/>
	<path class="st103" d="M-50.7,99.1c0-2.6,2.1-4.8,4.8-4.8H8.8c2.6,0,4.8,2.1,4.8,4.8v6.2c0,2.6-2.1,4.8-4.8,4.8h-54.7
		c-2.6,0-4.8-2.1-4.8-4.8V99.1L-50.7,99.1z"/>
</g>
</svg>
