<?xml version="1.0" encoding="utf-8"?>
<!-- Generator: Adobe Illustrator 19.0.0, SVG Export Plug-In . SVG Version: 6.00 Build 0)  -->
<svg version="1.1" id="Layer_1" xmlns="http://www.w3.org/2000/svg" xmlns:xlink="http://www.w3.org/1999/xlink" x="0px" y="0px"
	 viewBox="0 0 10 6" style="enable-background:new 0 0 10 6;" xml:space="preserve">
<style type="text/css">
	.st0{fill:#FFFFFF;}
</style>
<path id="XMLID_1094_" class="st0" d="M9.8,5.3C9.8,5.1,10,5,10,5V3.8c-0.6,0,0-1.5,0-1.5V1.4V1.2V0.9c-0.7,0-0.9-0.6-0.9-0.7
	c0.1,0,0.2-0.1,0.3-0.2C9.5,0.1,9.7,0.2,10,0.2l0,0V0H0v0.2l0,0c0.3,0,0.5-0.1,0.6-0.2c0.1,0.1,0.2,0.2,0.3,0.2
	c0,0.2-0.2,0.7-0.9,0.7v0.3v0.2v0.8c0,0,0.6,1.5,0,1.5V5c0,0,0.2,0.1,0.2,0.3c0,0.2-0.1,0.3-0.2,0.3v0.3C0,5.9,0.5,6,0.4,5
	c0,0,0.8,0.2,1.3-0.1C2.1,4.5,2,3.8,2,3.8s0.6,0.1,0.9-0.3c0.4-0.5,0-1,0-1s0.3,0,0.5-0.2C3.5,2.8,4.1,3,4.3,3
	c0.2,0,0.3-0.1,0.4-0.2C4.7,3,4.8,3.2,5,3.2c0.1,0,0.3-0.2,0.3-0.4C5.4,2.9,5.5,3,5.7,3C6,3,6.5,2.8,6.6,2.3
	c0.2,0.2,0.5,0.2,0.5,0.2s-0.4,0.5,0,1C7.4,4,8,3.8,8,3.8S7.9,4.6,8.3,4.9C8.7,5.3,9.6,5,9.6,5C9.4,6,10,5.9,10,5.9V5.6
	C9.9,5.6,9.8,5.6,9.8,5.3z M6.4,0.2c0.2,0,0.4-0.1,0.5-0.2C7,0.1,7.2,0.2,7.5,0.2S8,0.2,8.1,0c0.1,0.1,0.3,0.2,0.6,0.2h0.1
	c0,0,0,0.1,0,0.2C8.4,0.5,7.2,0.7,7,0.8C6.9,0.9,6.8,1,6.8,1.1c-0.2,0-0.4-0.2-0.5-0.4C6.2,0.5,6.2,0.4,6.4,0.2z M8.3,0.7
	c0,0-0.6,0.4-0.7,0.4S7.4,1.1,7.4,1s0-0.2,0.1-0.2S8.3,0.7,8.3,0.7z M1.1,0.2h0.1c0.3,0,0.5,0,0.6-0.2C2,0.1,2.2,0.2,2.5,0.2
	S3,0.1,3.1,0c0.1,0.1,0.3,0.2,0.5,0.2c0.1,0.1,0.1,0.3,0.1,0.5C3.6,0.9,3.4,1.1,3.2,1.1c0-0.2-0.1-0.3-0.2-0.3
	C2.8,0.7,1.6,0.5,1.1,0.4C1.1,0.3,1.1,0.3,1.1,0.2z M2.6,1c0,0.1-0.1,0.1-0.2,0.1c-0.1,0-0.7-0.4-0.7-0.4s0.7,0.1,0.8,0.1
	C2.5,0.8,2.6,0.9,2.6,1z M1.4,4.7c-0.6,0.3-1,0-1,0s0.1,0,0.2-0.2s0-0.9,0-1S0.1,1.9,0,1.4c0.1,0,0.3,0,0.4-0.1
	c0.1,0.6,0.3,2,0.4,2.2C1,3.8,1.4,4,1.7,3.9c0,0,0.1,0,0.1-0.1C1.8,4.1,1.8,4.5,1.4,4.7z M0.7,1.8c0,0,0.6,0.8,0.7,0.9
	s0,0.3-0.1,0.4C1.3,3.2,1,3.1,0.9,3C0.8,2.8,0.7,1.8,0.7,1.8z M2.6,3.3C2.4,3.6,2.1,3.6,2,3.6c0.1-0.1,0.1-0.3,0-0.4
	C1.9,3,0.9,1.7,0.6,1.3l0,0C0.7,1.2,0.8,1.1,0.9,1c0.3,0.4,0.9,1.5,1.1,1.6c0.2,0.2,0.5,0.2,0.7,0l0,0C2.8,2.8,2.8,3.1,2.6,3.3z
	 M1.4,1.3c0,0,0.7,0.5,0.8,0.6s0.1,0.2,0,0.3c-0.1,0-0.2,0-0.3-0.1C1.8,2,1.4,1.3,1.4,1.3z M3.3,1.9c0,0.2-0.2,0.4-0.4,0.5
	c0-0.1,0-0.3-0.1-0.4C2.6,1.9,1.5,1.2,0.9,0.9C1,0.8,1,0.7,1,0.5l0,0c0.4,0.3,1.5,0.9,1.7,1c0.2,0.1,0.3,0,0.4-0.1
	C3.2,1.4,3.3,1.7,3.3,1.9z M4.8,2.3c0,0,0,0.3-0.5,0.3C4,2.6,3.6,2.3,3.5,2.2c0-0.1,0.1-0.1,0.1-0.2c0.2-0.5-0.3-0.7-0.3-0.7
	S4,1.2,4.1,0.7c0-0.2-0.1-0.4-0.2-0.5c0.2,0,0.4-0.1,0.5-0.2c0.1,0.1,0.2,0.2,0.4,0.2C4.7,0.4,4.7,0.5,4.6,0.7c0,0.2,0,0.3,0,0.5
	C4.6,1.7,4.7,2.2,4.8,2.3L4.8,2.3z M5,1.8c-0.1,0-0.2-0.2-0.2-0.5S4.9,0.8,5,0.8S5.2,1,5.2,1.3S5.1,1.8,5,1.8z M6.4,2
	c0,0.1,0.1,0.1,0.1,0.2C6.4,2.3,6,2.6,5.7,2.6c-0.5,0-0.5-0.3-0.5-0.3l0,0c0.1-0.2,0.2-0.6,0.2-1.1c0-0.2,0-0.4,0-0.5
	c0-0.2-0.1-0.4-0.1-0.5c0.2,0,0.3-0.1,0.4-0.2C5.8,0.1,6,0.2,6.2,0.2C6,0.3,5.9,0.5,5.9,0.7C6,1.2,6.7,1.3,6.7,1.3S6.1,1.5,6.4,2z
	 M6.7,1.9c0-0.2,0-0.5,0.1-0.6c0.1,0.2,0.3,0.2,0.5,0.2c0.1,0,1.2-0.7,1.7-1l0,0c0,0.1,0.1,0.2,0.1,0.4C8.5,1.2,7.4,1.9,7.3,2
	C7.2,2.1,7.1,2.2,7.1,2.4C7,2.3,6.8,2.1,6.7,1.9z M8.6,1.3c0,0-0.4,0.8-0.5,0.8C8,2.2,7.9,2.2,7.8,2.1C7.7,2,7.7,1.9,7.8,1.8
	C7.9,1.7,8.6,1.3,8.6,1.3z M7.4,3.3C7.2,3.1,7.2,2.8,7.3,2.6l0,0c0.2,0.2,0.5,0.2,0.7,0c0.1-0.1,0.7-1.2,1-1.6
	c0.1,0.1,0.2,0.2,0.3,0.3l0,0C9.1,1.7,8.1,3,8,3.2C7.9,3.3,8,3.5,8,3.6C7.9,3.6,7.6,3.6,7.4,3.3z M9.3,1.8c0,0-0.1,1.1-0.2,1.2
	C9,3.1,8.8,3.2,8.6,3.1C8.5,3,8.4,2.8,8.5,2.7C8.6,2.6,9.3,1.8,9.3,1.8z M8.6,4.7C8.2,4.5,8.2,4.1,8.2,3.8c0,0,0.1,0,0.1,0.1
	C8.6,4,9,3.9,9.1,3.6s0.3-1.7,0.4-2.3c0.2,0.1,0.3,0.1,0.4,0.1c-0.1,0.5-0.4,2-0.5,2.1c0,0.1-0.1,0.8,0,1s0.2,0.2,0.2,0.2
	S9.3,5,8.6,4.7z"/>
</svg>
