<?xml version="1.0" encoding="utf-8"?>
<!-- Generator: Adobe Illustrator 19.0.0, SVG Export Plug-In . SVG Version: 6.00 Build 0)  -->
<svg version="1.1" id="Layer_1" xmlns="http://www.w3.org/2000/svg" xmlns:xlink="http://www.w3.org/1999/xlink" x="0px" y="0px"
	 viewBox="0 0 100 100" style="enable-background:new 0 0 100 100;" xml:space="preserve">
<style type="text/css">
	.st0{fill:#515251;}
</style>
<path id="XMLID_1_" class="st0" d="M93.6,24.9H6.4c-1.4,0-2.6-1.2-2.6-2.6V15c0-1.4,1.2-2.6,2.6-2.6h87.3c1.4,0,2.6,1.2,2.6,2.6v7.3
	C96.2,23.8,95.1,24.9,93.6,24.9z"/>
<path id="XMLID_2_" class="st0" d="M93.6,56.3H6.4c-1.4,0-2.6-1.2-2.6-2.6v-7.3c0-1.4,1.2-2.6,2.6-2.6h87.3c1.4,0,2.6,1.2,2.6,2.6
	v7.3C96.2,55.1,95.1,56.3,93.6,56.3z"/>
<path id="XMLID_3_" class="st0" d="M93.6,87.6H6.4c-1.4,0-2.6-1.2-2.6-2.6v-7.3c0-1.4,1.2-2.6,2.6-2.6h87.3c1.4,0,2.6,1.2,2.6,2.6
	V85C96.2,86.4,95.1,87.6,93.6,87.6z"/>
</svg>
