<?xml version="1.0" encoding="utf-8"?>
<!-- Generator: Adobe Illustrator 19.0.0, SVG Export Plug-In . SVG Version: 6.00 Build 0)  -->
<svg version="1.1" id="Layer_1" xmlns="http://www.w3.org/2000/svg" xmlns:xlink="http://www.w3.org/1999/xlink" x="0px" y="0px"
	 viewBox="0 0 841.9 100" style="enable-background:new 0 0 841.9 100;" xml:space="preserve">
<style type="text/css">
	.st0{fill:#9C9B9B;}
</style>
<g>
	<g>
		<path class="st0" d="M20.9,63.9v-0.1c0-12.2,9.2-22.9,22.7-22.9c13.5,0,22.6,10.5,22.6,22.7v0.1c0,12.2-9.2,22.9-22.7,22.9
			C30,86.6,20.9,76.1,20.9,63.9z M61,63.9v-0.1c0-10-7.4-18.2-17.5-18.2s-17.4,8.1-17.4,18.1v0.1c0,10,7.4,18.2,17.5,18.2
			S61,73.9,61,63.9z"/>
		<path class="st0" d="M72.4,41.7h15.4c14,0,23.6,9.5,23.6,22v0.1c0,12.4-9.6,22.1-23.6,22.1H72.4V41.7z M87.8,81.2
			c11.2,0,18.4-7.6,18.4-17.4v-0.1c0-9.8-7.2-17.5-18.4-17.5H77.4v35H87.8z"/>
	</g>
	<g>
		<path class="st0" d="M377.6,81.9l1.9-2.3c2.8,2.6,5.6,3.8,9.4,3.8c3.7,0,6.1-1.9,6.1-4.6v-0.1c0-2.5-1.4-4-7.1-5.2
			c-6.3-1.4-9.2-3.4-9.2-7.8v-0.1c0-4.3,3.8-7.4,9-7.4c4,0,6.8,1.1,9.6,3.3l-1.8,2.4c-2.5-2.1-5.1-2.9-7.9-2.9
			c-3.5,0-5.8,1.9-5.8,4.4v0.1c0,2.6,1.4,4,7.4,5.3c6.1,1.3,8.9,3.5,8.9,7.7v0.1c0,4.7-3.9,7.7-9.3,7.7
			C384.4,86.2,380.9,84.8,377.6,81.9z"/>
		<path class="st0" d="M404.3,58.7h3.1l9.9,14.8l9.9-14.8h3.1v27.2h-3.1v-22l-9.9,14.6h-0.2l-9.9-14.5v22h-3V58.7z"/>
		<path class="st0" d="M437,72.3L437,72.3c0-7.6,5.7-14.1,14-14.1c8.3,0,13.9,6.5,13.9,14v0.1c0,7.5-5.7,14-14,14
			C442.6,86.3,437,79.8,437,72.3z M461.6,72.3L461.6,72.3c0-6.2-4.5-11.3-10.8-11.3s-10.7,5-10.7,11.1v0.1c0,6.2,4.5,11.2,10.8,11.2
			C457.2,83.5,461.6,78.5,461.6,72.3z"/>
		<path class="st0" d="M481.3,81.9l1.9-2.3c2.8,2.6,5.6,3.8,9.4,3.8c3.7,0,6.1-1.9,6.1-4.6v-0.1c0-2.5-1.4-4-7.1-5.2
			c-6.3-1.4-9.2-3.4-9.2-7.8v-0.1c0-4.3,3.8-7.4,9-7.4c4,0,6.8,1.1,9.6,3.3l-1.8,2.4c-2.5-2.1-5.1-2.9-7.9-2.9
			c-3.5,0-5.8,1.9-5.8,4.4v0.1c0,2.6,1.4,4,7.4,5.3c6.1,1.3,8.9,3.5,8.9,7.7v0.1c0,4.7-3.9,7.7-9.3,7.7
			C488.1,86.2,484.5,84.8,481.3,81.9z"/>
		<path class="st0" d="M517.5,58.5h2.9l12.4,27.4h-3.3l-3.2-7.2h-14.9l-3.2,7.2h-3.2L517.5,58.5z M525.2,75.9l-6.2-13.9l-6.2,13.9
			H525.2z"/>
	</g>
	<g>
		<g>
			<path class="st0" d="M526.1,17.4h16.7l18,48.2l18-48.2h16.3l-27.8,68.9h-13.4L526.1,17.4z"/>
			<path class="st0" d="M624.4,16.9h14l29.5,68.9H652l-6.3-15.4h-29.1l-6.3,15.4h-15.4L624.4,16.9z M640.3,57.2L631.2,35L622,57.2
				H640.3z"/>
			<path class="st0" d="M673.5,17.4h16.3l18.1,28.9L726,17.4h16.3v68.5h-15V41.2l-19.4,29.2h-0.4l-19.2-28.9v44.4h-14.8V17.4z"/>
			<path class="st0" d="M777.5,16.9h14l29.5,68.9h-15.8l-6.3-15.4h-29.1l-6.3,15.4H748L777.5,16.9z M793.4,57.2L784.3,35l-9.1,22.2
				H793.4z"/>
		</g>
	</g>
	<g>
		<path class="st0" d="M345.7,32.9L345.7,32.9c0-7.5,5.5-14.1,13.7-14.1c4.6,0,7.5,1.3,10.2,3.6l-2,2.3c-2.1-1.8-4.4-3.1-8.3-3.1
			c-6,0-10.4,5.1-10.4,11.1v0.1c0,6.5,4.2,11.3,10.8,11.3c3.1,0,6-1.2,7.9-2.7v-6.8h-8.3v-2.8h11.3v10.8c-2.5,2.3-6.4,4.2-11,4.2
			C351,46.8,345.7,40.6,345.7,32.9z"/>
		<path class="st0" d="M376.2,32.9L376.2,32.9c0-7.6,5.7-14.1,14-14.1c8.3,0,13.9,6.5,13.9,14v0.1c0,7.5-5.7,14-14,14
			C381.8,46.8,376.2,40.4,376.2,32.9z M400.9,32.9L400.9,32.9c0-6.2-4.5-11.3-10.8-11.3s-10.7,5-10.7,11.1v0.1
			c0,6.2,4.5,11.2,10.8,11.2C396.4,44,400.9,39,400.9,32.9z"/>
		<path class="st0" d="M410.6,19.2h9.5c8.6,0,14.5,5.9,14.5,13.5v0.1c0,7.6-5.9,13.6-14.5,13.6h-9.5V19.2z M420.1,43.5
			c6.9,0,11.3-4.7,11.3-10.7v-0.1c0-6-4.4-10.8-11.3-10.8h-6.4v21.5H420.1z"/>
		<path class="st0" d="M441.4,19.2h3.1v27.2h-3.1V19.2z"/>
		<path class="st0" d="M452.5,19.2h2.9L472.5,41V19.2h3v27.2h-2.5l-17.6-22.3v22.3h-3V19.2z"/>
		<path class="st0" d="M483.3,19.2H503V22h-16.7v9.3h14.9v2.8h-14.9v9.5h16.9v2.8h-19.9V19.2z"/>
	</g>
	<g>
		<g>
			<path class="st0" d="M130.9,29.3l-12,2.9L115.7,20l19.8-5.9h10.3V83h-14.9V29.3z"/>
			<path class="st0" d="M157,76.1l8-11.4c5,4,9.1,5.9,15,5.9c8.6,0,12.9-6.3,14-15.5c-3.4,2.8-8,4.7-14,4.7
				c-14.9,0-24.6-8.3-24.6-22.1v-0.2c0-13.8,10.7-24,26.2-24c9.1,0,14.6,2.2,19.9,7.4c4.9,4.9,8.2,12.3,8.2,25.8v0.2
				c0,22.2-10.5,37.4-30.1,37.4C169.5,84.2,162.9,80.9,157,76.1z M194.3,37v-0.2c0-6.2-4.5-10.5-12.1-10.5
				c-7.5,0-11.7,4.2-11.7,10.4v0.2c0,6.2,4.5,10.3,12,10.3C189.9,47.1,194.3,42.8,194.3,37z"/>
			<path class="st0" d="M249.2,68.3h-33.6l-2.5-10.7l37.7-43.5h12.8v42h9.2v12.2h-9.2V83h-14.4V68.3z M249.2,56V34.7L230.9,56H249.2
				z"/>
			<path class="st0" d="M277.3,64.3v-0.2c0-8.3,3.7-13.1,11.1-16.5c-5.4-3.2-8.7-7.5-8.7-15v-0.2c0-10.5,9.6-18.8,24.2-18.8
				S328,21.8,328,32.4v0.2c0,7.4-3.3,11.7-8.7,15c7,3.6,11.1,8,11.1,16.1v0.2c0,12.7-11.3,20.1-26.5,20.1
				C288.6,84,277.3,76.2,277.3,64.3z M315.7,63.1v-0.2c0-5.4-4.9-8.4-11.9-8.4c-7,0-11.9,3-11.9,8.4v0.2c0,4.7,4.4,8.5,11.9,8.5
				C311.3,71.6,315.7,67.9,315.7,63.1z M313.7,34.2V34c0-4.2-3.5-8-9.8-8s-9.8,3.7-9.8,7.9v0.2c0,4.8,3.8,8.4,9.8,8.4
				S313.7,39,313.7,34.2z"/>
			<path class="st0" d="M336,67.4h15.9V83H336V67.4z"/>
		</g>
	</g>
</g>
</svg>
